<svg xmlns="http://www.w3.org/2000/svg" viewBox="400 686 100 123.81">
  <defs>
    <style>
      .cls-1 {
        fill: #fff;
      }
    </style>
  </defs>
  <g id="church" transform="translate(350.768 686)">
    <g id="Group_14" data-name="Group 14" transform="translate(49.232)">
      <g id="Group_13" data-name="Group 13">
        <path id="Path_20" data-name="Path 20" class="cls-1" d="M146.8,77.137,114.6,56.814V42a4.591,4.591,0,0,0-1.08-9.055h-1.7l-9.435-14.013a3.8,3.8,0,0,0-1.337-1.216V8.95h5.039a1.814,1.814,0,1,0,0-3.628h-5.039V1.814a1.814,1.814,0,0,0-3.628,0V5.322H92.379a1.814,1.814,0,0,0,0,3.628h5.039v8.768a3.8,3.8,0,0,0-1.337,1.216L86.645,32.947h-1.7A4.591,4.591,0,0,0,83.866,42V56.813l-32.2,20.323a5.29,5.29,0,0,0,.261,9.06,4.985,4.985,0,0,0,5.134-.154L99.232,59.426l42.173,26.616a4.987,4.987,0,0,0,5.134.155,5.291,5.291,0,0,0,.261-9.06ZM99.09,20.961a.171.171,0,0,1,.283,0l8.071,11.986H91.019ZM84.946,36.575h28.572a.966.966,0,1,1,0,1.931H84.946a.966.966,0,1,1,0-1.931Zm26.024,5.56V54.524l-10.77-6.8a1.815,1.815,0,0,0-1.936,0l-10.77,6.8V42.135Zm33.818,40.884a1.392,1.392,0,0,1-1.446-.045L100.2,55.747a1.815,1.815,0,0,0-1.936,0L55.122,82.974a1.4,1.4,0,0,1-1.446.045,1.6,1.6,0,0,1-.816-1.429,1.639,1.639,0,0,1,.74-1.384l45.632-28.8,45.632,28.8a1.64,1.64,0,0,1,.74,1.384A1.6,1.6,0,0,1,144.788,83.019Z" transform="translate(-49.232)"/>
      </g>
    </g>
    <g id="Group_16" data-name="Group 16" transform="translate(59.472 81.644)">
      <g id="Group_15" data-name="Group 15">
        <path id="Path_21" data-name="Path 21" class="cls-1" d="M169.285,343.85a1.814,1.814,0,0,0-1.814,1.814v30.5h-21.4v-23.81a14.727,14.727,0,1,0-29.454,0v23.81h-21.4v-30.5a1.814,1.814,0,1,0-3.628,0v32.316a1.814,1.814,0,0,0,1.814,1.814h75.892a1.814,1.814,0,0,0,1.814-1.814V345.665A1.814,1.814,0,0,0,169.285,343.85Zm-26.847,32.316h-22.2v-23.81a11.1,11.1,0,1,1,22.2,0Z" transform="translate(-91.579 -337.629)"/>
      </g>
    </g>
  </g>
</svg>
