<svg xmlns="http://www.w3.org/2000/svg" viewBox="1420 414 100 86.531">
  <defs>
    <style>
      .cls-1 {
        fill: #fff;
      }
    </style>
  </defs>
  <g id="first-aid-kit" transform="translate(1420 387.816)">
    <g id="Group_10" data-name="Group 10" transform="translate(29.424 54.999)">
      <g id="Group_9" data-name="Group 9">
        <path id="Path_18" data-name="Path 18" class="cls-1" d="M152.486,149.7h-8.4v-8.4a3.066,3.066,0,0,0-3.045-3.086H128.927a3.066,3.066,0,0,0-3.066,3.066v8.4h-8.375a3.066,3.066,0,0,0-3.086,3.045v12.12a3.066,3.066,0,0,0,3.066,3.066h8.4v8.374a3.066,3.066,0,0,0,3.045,3.086H141a3.066,3.066,0,0,0,3.066-3.066h0v-8.4h8.4a3.066,3.066,0,0,0,3.086-3.045v-12.1A3.066,3.066,0,0,0,152.486,149.7Zm-1.049,14.095h-9.4a2.058,2.058,0,0,0-2.058,2.058v9.4h-10v-9.4a2.058,2.058,0,0,0-2.058-2.058h-9.4v-9.979h9.4a2.058,2.058,0,0,0,2.058-2.058v-9.424h9.979v9.4a2.058,2.058,0,0,0,2.058,2.058h9.424Z" transform="translate(-114.4 -138.216)"/>
      </g>
    </g>
    <g id="Group_12" data-name="Group 12" transform="translate(0 26.184)">
      <g id="Group_11" data-name="Group 11">
        <path id="Path_19" data-name="Path 19" class="cls-1" d="M85.8,39.608H68.848V32.365a5.988,5.988,0,0,0-5.791-6.178q-.253-.008-.505,0h-25.1a5.988,5.988,0,0,0-6.291,5.668q-.013.252,0,.505v7.2H14.2c-6.543,0-14.2,3.724-14.2,14.2V98.517c0,10.473,7.654,14.2,14.2,14.2H85.8c6.543,0,14.2-3.724,14.2-14.2V53.805C100,43.332,92.366,39.608,85.8,39.608ZM35.267,32.365a1.93,1.93,0,0,1,2.2-2.2H62.551c2.2,0,2.2,1.584,2.2,2.2v7.2H35.267ZM95.885,98.517c0,9.095-7.037,10.082-10.082,10.082H14.2c-3.025,0-10.082-.988-10.082-10.082V53.805c0-9.095,7.037-10.082,10.082-10.082H85.8c3.025,0,10.082.988,10.082,10.082V98.517Z" transform="translate(0 -26.184)"/>
      </g>
    </g>
  </g>
</svg>
