<svg xmlns="http://www.w3.org/2000/svg" viewBox="1420 704 100 100.022">
  <defs>
    <style>
      .cls-1 {
        fill: #fff;
      }
    </style>
  </defs>
  <g id="heart" transform="translate(1419.943 704)">
    <g id="Group_34" data-name="Group 34" transform="translate(19.393)">
      <g id="Group_33" data-name="Group 33">
        <path id="Path_30" data-name="Path 30" class="cls-1" d="M158.257,5.663A16.754,16.754,0,0,0,145.573,0c-5.5,0-10.272,2.6-13.793,7.524-.264.369-.511.738-.743,1.1-.231-.366-.478-.734-.742-1.1C126.773,2.6,122,0,116.5,0a16.754,16.754,0,0,0-12.683,5.663,19.532,19.532,0,0,0-4.782,13.046c0,5.376,2.086,10.337,6.565,15.612,3.908,4.6,9.513,9.333,16,14.812,2.4,2.024,4.879,4.118,7.514,6.4a2.93,2.93,0,0,0,3.838,0c2.635-2.284,5.115-4.377,7.513-6.4,4.168-3.518,7.768-6.557,10.892-9.5,6.065-5.722,11.677-12.217,11.677-20.921A19.531,19.531,0,0,0,158.257,5.663Zm-10.916,29.7c-3.006,2.836-6.548,5.826-10.65,9.288-1.825,1.54-3.7,3.12-5.653,4.8-1.957-1.678-3.829-3.258-5.654-4.8C112.607,33.871,104.9,27.362,104.9,18.709c0-7.325,4.989-12.849,11.606-12.849,3.535,0,6.541,1.664,8.935,4.946a19.718,19.718,0,0,1,2.777,5.5,2.93,2.93,0,0,0,5.647,0c.029-.1,2.995-10.45,11.713-10.45,6.617,0,11.606,5.524,11.606,12.849C157.179,24.016,154.421,28.687,147.34,35.367Z" transform="translate(-99.036 0)"/>
      </g>
    </g>
    <g id="Group_36" data-name="Group 36" transform="translate(0.057 57.829)">
      <g id="Group_35" data-name="Group 35">
        <path id="Path_31" data-name="Path 31" class="cls-1" d="M91.268,297.2a8.82,8.82,0,0,0-6.432,2.8l-8.611,9.244a8.8,8.8,0,0,0-8.395-6.184H54.3a7.783,7.783,0,0,1-5.144-1.941,20.55,20.55,0,0,0-26.874-.186A8.783,8.783,0,0,0,15.1,297.2H2.987a2.93,2.93,0,0,0-2.93,2.93v35.156a2.93,2.93,0,0,0,2.93,2.93H15.1a8.769,8.769,0,0,0,6.606-3l1.735.488a67.379,67.379,0,0,0,18.234,2.514H67.83a20.606,20.606,0,0,0,16.406-8.2L98.3,311.257h0A8.789,8.789,0,0,0,91.268,297.2ZM18.026,329.425a2.933,2.933,0,0,1-2.93,2.93H5.916v-29.3H15.1a2.933,2.933,0,0,1,2.93,2.93Zm75.589-21.684h0L79.549,326.5a14.719,14.719,0,0,1-11.719,5.859H41.671a61.524,61.524,0,0,1-16.648-2.3l-1.146-.322c0-.1.008-.208.008-.312V307.312l2.042-1.8a14.68,14.68,0,0,1,19.354,0,13.639,13.639,0,0,0,9.015,3.4H67.831a2.93,2.93,0,0,1,0,5.86H47.009a2.93,2.93,0,1,0,0,5.859H69.794a8.818,8.818,0,0,0,6.431-2.8l12.9-13.846a2.9,2.9,0,0,1,2.145-.934,2.933,2.933,0,0,1,2.93,2.93A2.9,2.9,0,0,1,93.615,307.741Z" transform="translate(-0.057 -296.021)"/>
      </g>
    </g>
  </g>
</svg>
