<svg xmlns="http://www.w3.org/2000/svg" viewBox="889 373 141.413 141.413">
  <defs>
    <style>
      .cls-1 {
        fill: #fff;
      }
    </style>
  </defs>
  <g id="jet" transform="matrix(0.719, 0.695, -0.695, 0.719, 958.408, 372.931)">
    <g id="Group_8" data-name="Group 8" transform="translate(0.099 0)">
      <g id="Group_7" data-name="Group 7" transform="translate(0)">
        <path id="Path_14" data-name="Path 14" class="cls-1" d="M490.987,327.459a5,5,0,0,0-5,5v13.41a3.337,3.337,0,0,0,3.334,3.334h3.334a3.338,3.338,0,0,0,3.334-3.334v-13.41A5,5,0,0,0,490.987,327.459Zm-1.667,5a1.667,1.667,0,1,1,3.334,0v6.716H489.32v-6.716Zm0,13.41v-3.361h3.335v3.361Z" transform="translate(-440.989 -297.328)"/>
        <path id="Path_15" data-name="Path 15" class="cls-1" d="M508.985,598.549h-3.334a1.667,1.667,0,1,0,0,3.333h3.334a1.667,1.667,0,1,0,0-3.333Z" transform="translate(-457.32 -543.312)"/>
        <path id="Path_16" data-name="Path 16" class="cls-1" d="M508.985,670.834h-3.334a1.667,1.667,0,1,0,0,3.333h3.334a1.667,1.667,0,1,0,0-3.333Z" transform="translate(-457.32 -608.904)"/>
        <path id="Path_17" data-name="Path 17" class="cls-1" d="M98.272,64.362l-1.5-1.228V53.786a5,5,0,0,0-10,0v1.171l-25-20.441v-1.27a5.016,5.016,0,0,0-.838-2.779l-2.214-3.335a1.686,1.686,0,0,1-.282-.934V17.672c0-5.181-3.508-11.071-5.6-14.119a3.315,3.315,0,0,0-5.473,0c-2.09,3.049-5.6,8.938-5.6,14.12V26.2a1.686,1.686,0,0,1-.282.934l-2.215,3.336a5.019,5.019,0,0,0-.837,2.778v1.27L15.075,53.61a4.993,4.993,0,0,0-9.983.176v7.986l-3.16,2.583A5.03,5.03,0,0,0,.357,69.828L1.9,74.418a5.026,5.026,0,0,0,6.483,3.134l14.8-5.327a1.741,1.741,0,0,1,.591-.1h14.65v.28a1.667,1.667,0,0,0,.119.617l2.928,7.35-13.5,13.555a3.325,3.325,0,0,0-.806,3.417l.83,2.5a3.317,3.317,0,0,0,3.151,2.29,3.37,3.37,0,0,0,.972-.144L47.009,97.5h6.177l14.884,4.484a3.37,3.37,0,0,0,.972.144,3.317,3.317,0,0,0,3.151-2.289l.83-2.5a3.324,3.324,0,0,0-.8-3.416l-13.5-13.557,2.928-7.35a1.668,1.668,0,0,0,.119-.617v-.28h14.65a1.741,1.741,0,0,1,.591.1l14.777,5.318A5.067,5.067,0,0,0,98.3,74.391l1.54-4.575A5.011,5.011,0,0,0,98.272,64.362ZM8.426,53.786a1.667,1.667,0,0,1,3.334,0v2.535L8.425,59.047V53.786Zm30,15H23.779a5.066,5.066,0,0,0-1.721.3l-14.8,5.327a1.7,1.7,0,0,1-2.194-1.06l-1.545-4.59a1.679,1.679,0,0,1,.526-1.828L38.43,38.823V68.788Zm-7.263,30-.827-2.51L42.461,84.105,44.8,94.683ZM55.22,80.144l0,.009a1.566,1.566,0,0,0-.08.256L52.093,94.166H48.1L45.058,80.409a1.6,1.6,0,0,0-.08-.256l0-.009,0-.009-3.208-8.053V33.247a1.689,1.689,0,0,1,.282-.935l2.214-3.335A5.009,5.009,0,0,0,45.1,26.2V17.672c0-4.442,3.506-10.035,4.986-12.234,1.509,2.2,5.015,7.792,5.015,12.234V26.2a5.007,5.007,0,0,0,.838,2.779l2.212,3.333a1.687,1.687,0,0,1,.283.937V72.082l-3.208,8.053ZM69.859,96.289l-.829,2.5L55.393,94.683l2.341-10.577ZM90.1,53.786a1.667,1.667,0,0,1,3.334,0v6.622L90.1,57.683v-3.9Zm6.581,14.968-1.54,4.574a1.736,1.736,0,0,1-2.23,1.078L78.136,69.088a5.075,5.075,0,0,0-1.721-.3H61.766V38.823l34.4,28.12A1.666,1.666,0,0,1,96.683,68.754Z" transform="translate(-0.099 -2.109)"/>
      </g>
    </g>
  </g>
</svg>
