<?xml version="1.0" encoding="utf-8"?>
<!-- Generator: Adobe Illustrator 22.1.0, SVG Export Plug-In . SVG Version: 6.00 Build 0)  -->
<svg version="1.1" xmlns="http://www.w3.org/2000/svg" xmlns:xlink="http://www.w3.org/1999/xlink" x="0px" y="0px"
	 viewBox="0 0 1500 1500" style="enable-background:new 0 0 1500 1500;" xml:space="preserve">
<style type="text/css">
	.st0{fill:url(#SVGID_1_);}
	.st1{fill:url(#SVGID_2_);}
	.st2{fill:url(#SVGID_3_);}
	.st3{fill:url(#SVGID_4_);}
	.st4{fill:url(#SVGID_5_);}
	.st5{fill:url(#SVGID_6_);}
	.st6{fill:url(#SVGID_7_);}
	.st7{fill:url(#SVGID_8_);}
	.st8{fill:url(#SVGID_9_);}
</style>
<g id="Слой_10">
	<linearGradient id="SVGID_1_" gradientUnits="userSpaceOnUse" x1="773.2129" y1="801.0464" x2="773.2129" y2="302.7683">
		<stop  offset="0" style="stop-color:#68C2C5"/>
		<stop  offset="1" style="stop-color:#3FA9F5"/>
	</linearGradient>
	<path class="st0" d="M853.6,801c-26-12.4-52.5-18.3-80.4-18.4c-28-0.1-54.4,6.3-80.2,18.3c-0.7-2.2-1.3-3.9-1.8-5.5
		c-29.8-114.8-59.5-229.7-89.2-344.5c-2.2-8.5-4.7-17-6.6-25.7c-3.6-16.3-0.1-31.2,10.4-44.1c21.5-26.5,48.2-46.3,79.4-60
		c32.4-14.1,66.3-20.2,101.4-17.9c50,3.2,94.4,20.9,131.8,54.6c7.6,6.9,14.6,14.6,21.4,22.3c12.4,14,15.2,30.5,10.6,48.2
		c-14.8,57.8-29.8,115.5-44.8,173.2c-16.7,64.4-33.4,128.7-50,193C855.1,796.5,854.4,798.3,853.6,801z"/>
</g>
<g id="Слой_9">
	<linearGradient id="SVGID_2_" gradientUnits="userSpaceOnUse" x1="774.6097" y1="1224.2286" x2="774.6097" y2="1058.8811">
		<stop  offset="0" style="stop-color:#68C2C5"/>
		<stop  offset="1" style="stop-color:#3FA9F5"/>
	</linearGradient>
	<path class="st1" d="M774.5,1059c150.3,0,300.7,0,451,0.1c4.2,0,8.7,0.6,12.6,2.1c7.1,2.8,8,9,2.2,14
		c-21.2,18.7-44.2,34.8-68.5,49.3c-64.3,38.4-133.9,63.3-206.8,79.4c-37,8.2-74.4,13.6-112.1,16.9c-35,3-70.2,4.1-105.3,3
		c-64.8-2.1-128.8-10.4-191.6-26.6c-70.8-18.3-138.1-45.1-199.2-85.9c-16.7-11.2-32.3-24.1-48.3-36.4c-5-3.8-4.7-9,0.6-12.4
		c2.8-1.8,6.4-2.6,9.8-3.3c2.2-0.5,4.6-0.2,7-0.2C475.5,1059,625,1059,774.5,1059z"/>
</g>
<g id="Слой_8">
	<linearGradient id="SVGID_3_" gradientUnits="userSpaceOnUse" x1="500.0014" y1="897.2994" x2="500.0014" y2="438.8213">
		<stop  offset="0" style="stop-color:#68C2C5"/>
		<stop  offset="1" style="stop-color:#3FA9F5"/>
	</linearGradient>
	<path class="st2" d="M603.5,896.9c-8.9-8.2-18-15.8-26.3-24.2C550,845,523.1,817.1,496,789.3c-22.9-23.5-45.7-47.1-68.6-70.6
		c-22.2-22.8-44.3-45.6-66.5-68.5c-8.5-8.7-16.9-17.5-25.3-26.2c-12.7-13.2-14.3-28.9-11.3-46c12.1-69.1,67.9-124.9,137-136.6
		c31.6-5.3,62.4-2.3,92.2,9.7c13.7,5.5,22.9,15.4,27.1,29.5c25.3,85.3,50.6,170.6,75.8,255.9c6.7,22.5,13.3,45.1,20.1,67.5
		c1.1,3.7,0.6,5.8-2.9,8.1c-31.1,20.6-54.4,47.8-69,82.2c-0.4,0.9-0.8,1.8-1.3,2.7C603.2,897.3,602.9,897.5,603.5,896.9z"/>
</g>
<g id="Слой_7">
	<linearGradient id="SVGID_4_" gradientUnits="userSpaceOnUse" x1="1046.2074" y1="898.5289" x2="1046.2074" y2="438.65">
		<stop  offset="0" style="stop-color:#68C2C5"/>
		<stop  offset="1" style="stop-color:#3FA9F5"/>
	</linearGradient>
	<path class="st3" d="M944.1,898.5c-1.2-2.5-1.9-3.7-2.5-5.1c-14.7-33.7-37.4-60.8-68.2-81c-3.8-2.5-5-4.6-3.6-9.2
		c19.4-64.8,38.5-129.6,57.8-194.5c12.4-42,25-84,37.3-126c4.8-16.5,15.1-27.1,31.1-33.2c98.8-37.7,209.4,26.1,226.3,130.4
		c3.1,19.1-1.8,34.4-15.4,48c-26.8,26.9-53.1,54.3-79.6,81.5c-21.8,22.4-43.6,44.9-65.4,67.4c-34.2,35.2-68.5,70.5-102.7,105.7
		C954.3,887.6,949.6,892.7,944.1,898.5z"/>
</g>
<g id="Слой_6">
	<linearGradient id="SVGID_5_" gradientUnits="userSpaceOnUse" x1="773.2442" y1="1047.1842" x2="773.2442" y2="797.7795">
		<stop  offset="0" style="stop-color:#68C2C5"/>
		<stop  offset="1" style="stop-color:#3FA9F5"/>
	</linearGradient>
	<path class="st4" d="M772.9,1046.9c-21.2,0-42.4,0.8-63.5-0.3c-17.9-0.9-36-2.6-53.4-6.5c-30.9-6.9-47.2-27.4-49.9-59
		c-3.8-43.9,7.5-83.7,34.6-118.4c28.8-36.9,66.8-58.7,113.6-63.8c52.5-5.8,98.5,9.8,136.2,46.5c36.8,35.8,53.2,80.2,50.4,131.5
		c-0.7,12.9-3.5,25.4-10.5,36.6c-9.5,15.4-24.2,23.3-41,27c-12.1,2.7-24.6,4.8-37,5.1c-26.5,0.8-52.9,0.2-79.4,0.2
		C772.9,1046.3,772.9,1046.6,772.9,1046.9z"/>
</g>
<g id="Слой_5">
	<linearGradient id="SVGID_6_" gradientUnits="userSpaceOnUse" x1="419.4215" y1="993.1239" x2="419.4215" y2="703.8839">
		<stop  offset="0" style="stop-color:#68C2C5"/>
		<stop  offset="1" style="stop-color:#3FA9F5"/>
	</linearGradient>
	<path class="st5" d="M244,831.5c0.9-64.5,48.7-118.8,112.8-127.3c12.2-1.6,22.7,1.9,31.4,10.6c29.5,29.4,59,58.8,88.6,88.2
		c38.3,38.1,76.6,76.1,115,114c2.9,2.8,3.6,5.4,2.7,9.2c-4.5,20.3-6,40.8-2.8,61.5c0.6,3.7-0.6,5.6-4.4,5.2
		c-5.1-0.5-10.4-0.5-15.2-2c-96.5-29.6-192.9-59.6-289.6-88.9c-17.9-5.4-28.8-15.8-32.7-33.8c-0.5-2.4-1.5-4.8-1.9-7.3
		C246.6,851.3,245.3,841.4,244,831.5z"/>
</g>
<g id="Слой_4">
	<linearGradient id="SVGID_7_" gradientUnits="userSpaceOnUse" x1="1124.4474" y1="993.6198" x2="1124.4474" y2="703.8917">
		<stop  offset="0" style="stop-color:#68C2C5"/>
		<stop  offset="1" style="stop-color:#3FA9F5"/>
	</linearGradient>
	<path class="st6" d="M1298,831.4c-0.6,16.5-3.1,31.5-8.4,46.1c-4.3,11.8-12.6,19.2-24.6,22.9c-65.1,20-130.2,40.2-195.3,60.2
		c-33.4,10.3-66.9,20.6-100.3,30.9c-0.8,0.2-1.6,0.5-2.4,0.7c-11.7,3.1-12.6,2-11.6-9.8c1.8-19.7,1-39.3-4.1-58.5
		c-1.2-4.6-0.2-7.6,3.1-10.9c59.4-58.8,118.7-117.8,178-176.8c7.3-7.3,14.9-14.3,22.2-21.6c8.5-8.6,18.8-11.8,30.5-10.3
		c58,7.3,104.5,53.9,111.5,111.8C1297.4,821.5,1297.7,827,1298,831.4z"/>
</g>
<g id="Слой_3">
	<linearGradient id="SVGID_8_" gradientUnits="userSpaceOnUse" x1="485.8318" y1="1039.9995" x2="485.8318" y2="958.5228">
		<stop  offset="0" style="stop-color:#68C2C5"/>
		<stop  offset="1" style="stop-color:#3FA9F5"/>
	</linearGradient>
	<path class="st7" d="M618.5,1039.9c-2.7,0-4.4,0-6.2,0c-77.8,0-155.7,0-233.5,0.1c-5.5,0-9.5-1.8-13.1-5.7
		c-22.9-24.4-13.4-64.2,18.2-74.6c4.1-1.4,9.4-1.6,13.6-0.4c39.3,11.2,78.4,22.8,117.6,34.2c25.9,7.6,51.8,15.2,77.7,22.6
		c5.5,1.6,9.8,3.8,13,9C609.1,1030.2,613.7,1034.4,618.5,1039.9z"/>
</g>
<g id="Слой_2">
	<linearGradient id="SVGID_9_" gradientUnits="userSpaceOnUse" x1="1057.8119" y1="1039.8989" x2="1057.8119" y2="959.2177">
		<stop  offset="0" style="stop-color:#68C2C5"/>
		<stop  offset="1" style="stop-color:#3FA9F5"/>
	</linearGradient>
	<path class="st8" d="M928.6,1039.4c3.8-4.3,8.2-7.6,10.4-12c4.9-9.9,13.6-12.8,23.3-15.6c58.1-16.7,116.1-33.8,174.1-50.8
		c17.9-5.2,34.1,1.2,44,17.7c11.4,19,8.2,42.5-8.1,57.4c-2.2,2-5.8,3.6-8.8,3.6c-76.8,0.2-153.5,0.2-230.3,0.1
		C931.9,1039.9,930.6,1039.6,928.6,1039.4z"/>
</g>
</svg>
