<svg xmlns="http://www.w3.org/2000/svg" viewBox="910 704 100 100">
  <defs>
    <style>
      .cls-1 {
        fill: #fff;
      }
    </style>
  </defs>
  <g id="masks" transform="translate(910 703.999)">
    <g id="Group_18" data-name="Group 18" transform="translate(0 0.001)">
      <g id="Group_17" data-name="Group 17">
        <path id="Path_22" data-name="Path 22" class="cls-1" d="M99.428,15.678C93.191,9.442,81.692,4.74,73.739,2.61A77.165,77.165,0,0,0,54.646,0a38.006,38.006,0,0,0-9.688,1.082,1.953,1.953,0,0,0-1.381,1.381C43,4.6,42.511,6.84,42.1,9.133a1.914,1.914,0,0,0-.036.2,93.916,93.916,0,0,0-.8,27.375,78.844,78.844,0,0,0-15.006,2.472C18.309,41.315,6.81,46.016.572,52.253a1.953,1.953,0,0,0-.506,1.887c.623,2.327,1.384,4.7,2.26,7.079l0,.009A93.724,93.724,0,0,0,14.677,84.28C20.039,91.452,28.481,100,38.254,100a16.058,16.058,0,0,0,4.156-.546c5.964-1.6,10.649-6.579,13.547-14.4,2.206-5.955,3.38-13.452,3.434-21.8a16.069,16.069,0,0,0,2.354.175c9.772,0,18.215-8.549,23.577-15.721a93.434,93.434,0,0,0,14.611-30.14A1.953,1.953,0,0,0,99.428,15.678Zm-58.028,80a12.158,12.158,0,0,1-3.145.413c-6.363,0-13.625-5.026-20.449-14.153A89.28,89.28,0,0,1,6.473,61.15c1.053-.817,2.736-2.087,4.48-3.264a1.953,1.953,0,0,0-2.185-3.238c-1.353.913-2.65,1.863-3.68,2.641q-.507-1.53-.94-3.045C9.015,49.871,18.1,45.413,27.272,42.957a74.711,74.711,0,0,1,14.616-2.37A48.173,48.173,0,0,0,44.4,49.414l.014.036q.151.377.308.745l.017.04a31.773,31.773,0,0,0,1.76,3.512l.025.044.007.012c.037.062.072.127.109.189.078.13.159.254.238.382.051.082.1.165.154.246q.165.26.335.512.082.122.165.243c.116.168.232.335.35.5.049.068.1.134.149.2.128.172.256.344.387.511l.043.053c.257.326.52.638.788.941a6.254,6.254,0,0,1-10.316-.762,1.953,1.953,0,0,0-3.383,1.953,10.16,10.16,0,0,0,16.574,1.464,16.53,16.53,0,0,0,1.984,1.259l.085.047c.179.1.361.186.543.275l.152.073q.263.124.531.239l.065.029C55.556,76.765,51.91,92.865,41.4,95.681ZM82.194,45.366C75.37,54.493,68.108,59.52,61.745,59.52a12.157,12.157,0,0,1-3.145-.413c-.19-.051-.375-.107-.56-.167l-.017-.006C49.578,56.218,46.514,44.8,45.44,38.243c0-.014-.006-.028-.009-.043q-.029-.177-.056-.35A87.909,87.909,0,0,1,45.693,11.3c1.319-.181,3.411-.44,5.515-.587a1.953,1.953,0,0,0-.273-3.9c-1.621.113-3.213.287-4.49.445.191-.9.4-1.793.614-2.668a36.9,36.9,0,0,1,7.586-.687A73.081,73.081,0,0,1,72.728,6.383C81.9,8.839,90.985,13.3,95.852,17.67A89.585,89.585,0,0,1,82.194,45.366Z" transform="translate(0 -0.001)"/>
      </g>
    </g>
    <g id="Group_20" data-name="Group 20" transform="translate(69.264 25.197)">
      <g id="Group_19" data-name="Group 19">
        <path id="Path_23" data-name="Path 23" class="cls-1" d="M372.5,134.086a10.163,10.163,0,0,0-17.6,0,1.953,1.953,0,0,0,3.383,1.953,6.257,6.257,0,0,1,10.837,0,1.953,1.953,0,0,0,3.383-1.953Z" transform="translate(-354.634 -129.004)"/>
      </g>
    </g>
    <g id="Group_22" data-name="Group 22" transform="translate(46.992 18.104)">
      <g id="Group_21" data-name="Group 21">
        <path id="Path_24" data-name="Path 24" class="cls-1" d="M251.739,94.044a10.191,10.191,0,0,0-10.163,0,1.953,1.953,0,0,0,1.953,3.383,6.257,6.257,0,0,1,9.386,5.419,1.953,1.953,0,0,0,3.906,0A10.192,10.192,0,0,0,251.739,94.044Z" transform="translate(-240.599 -92.687)"/>
      </g>
    </g>
    <g id="Group_24" data-name="Group 24" transform="translate(53.865 40.066)">
      <g id="Group_23" data-name="Group 23">
        <path id="Path_25" data-name="Path 25" class="cls-1" d="M292.859,209.385a1.953,1.953,0,0,0-2.762,0,6.257,6.257,0,0,1-10.468-2.8,1.953,1.953,0,0,0-3.773,1.011,10.166,10.166,0,0,0,17,4.556A1.953,1.953,0,0,0,292.859,209.385Z" transform="translate(-275.789 -205.132)"/>
      </g>
    </g>
    <g id="Group_26" data-name="Group 26" transform="translate(11.784 58.84)">
      <g id="Group_25" data-name="Group 25">
        <path id="Path_26" data-name="Path 26" class="cls-1" d="M74.6,301.258h0a1.953,1.953,0,0,0-1.953,1.953,6.257,6.257,0,0,1-9.386,5.419,1.953,1.953,0,0,0-1.953,3.383,10.163,10.163,0,0,0,15.245-8.8A1.953,1.953,0,0,0,74.6,301.258Z" transform="translate(-60.332 -301.258)"/>
      </g>
    </g>
    <g id="Group_28" data-name="Group 28" transform="translate(29.554 78.203)">
      <g id="Group_27" data-name="Group 27">
        <path id="Path_27" data-name="Path 27" class="cls-1" d="M168.389,403.37a10.163,10.163,0,0,0-17,4.556,1.953,1.953,0,1,0,3.773,1.011,6.257,6.257,0,0,1,10.468-2.8,1.953,1.953,0,1,0,2.762-2.762Z" transform="translate(-151.319 -400.396)"/>
      </g>
    </g>
    <g id="Group_30" data-name="Group 30" transform="translate(54.645 6.842)">
      <g id="Group_29" data-name="Group 29">
        <path id="Path_28" data-name="Path 28" class="cls-1" d="M282.163,35.069l-.146-.022a1.953,1.953,0,1,0-.565,3.865l.093.014a1.953,1.953,0,0,0,.618-3.857Z" transform="translate(-279.78 -35.026)"/>
      </g>
    </g>
    <g id="Group_32" data-name="Group 32" transform="translate(12.707 51.531)">
      <g id="Group_31" data-name="Group 31">
        <path id="Path_29" data-name="Path 29" class="cls-1" d="M68.956,265.1a1.953,1.953,0,0,0-2.517-1.137l-.147.057a1.953,1.953,0,1,0,1.448,3.628l.079-.031A1.953,1.953,0,0,0,68.956,265.1Z" transform="translate(-65.062 -263.837)"/>
      </g>
    </g>
  </g>
</svg>
