<svg xmlns="http://www.w3.org/2000/svg" viewBox="400 404 100 100.001">
  <defs>
    <style>
      .cls-1 {
        fill: #fff;
      }
    </style>
  </defs>
  <g id="open-book" transform="translate(399.996 404)">
    <g id="Group_2" data-name="Group 2" transform="translate(0.004 0)">
      <g id="Group_1" data-name="Group 1" transform="translate(0 0)">
        <path id="Path_1" data-name="Path 1" class="cls-1" d="M612.168,423.086a1.669,1.669,0,0,0,2.243.728c.1-.05,9.908-5.033,14.747-6.562a1.668,1.668,0,0,0-1.007-3.18c-5.1,1.612-14.84,6.562-15.253,6.772A1.668,1.668,0,0,0,612.168,423.086Z" transform="translate(-555.321 -375.662)"/>
        <path id="Path_2" data-name="Path 2" class="cls-1" d="M613.656,208a1.664,1.664,0,0,0,.755-.182c.1-.05,9.908-5.033,14.747-6.562a1.668,1.668,0,0,0-1.007-3.18c-5.1,1.612-14.84,6.562-15.253,6.772a1.666,1.666,0,0,0,.758,3.152Z" transform="translate(-555.321 -179.666)"/>
        <path id="Path_3" data-name="Path 3" class="cls-1" d="M98.337,25a1.666,1.666,0,0,0-1.667,1.667v65a5.006,5.006,0,0,1-5,5h-40V92.832a49.115,49.115,0,0,1,15-2.832,85.967,85.967,0,0,1,24.475,3.248,1.667,1.667,0,0,0,2.192-1.582V18.334a1.664,1.664,0,0,0-1.305-1.627s-1.307-.292-3.54-.7a1.667,1.667,0,0,0-.6,3.278c.852.157,1.565.295,2.115.405V89.452a94.124,94.124,0,0,0-23.333-2.785,52.359,52.359,0,0,0-16.6,3.193A39.044,39.044,0,0,0,35,86.667a112.312,112.312,0,0,0-25,2.855v-69.9a109.7,109.7,0,0,1,25-2.957,36.136,36.136,0,0,1,13.333,2.747V85a1.666,1.666,0,0,0,2.525,1.428c.165-.1,16.678-9.962,31.335-14.847A1.667,1.667,0,0,0,83.337,70V1.667A1.669,1.669,0,0,0,81.084.106c-13.335,5-26.828,13.4-26.963,13.482a1.667,1.667,0,0,0,1.767,2.827A178.136,178.136,0,0,1,80,4.1v64.7c-11.377,3.953-23.255,10.408-28.333,13.3V18.334a1.668,1.668,0,0,0-.922-1.492A38.593,38.593,0,0,0,35,13.334a108.171,108.171,0,0,0-27.125,3.4,1.666,1.666,0,0,0-1.208,1.6V91.667a1.666,1.666,0,0,0,1.667,1.667,1.642,1.642,0,0,0,.457-.065A107.062,107.062,0,0,1,35,90a36.056,36.056,0,0,1,13.333,2.748v3.918h-40a5.006,5.006,0,0,1-5-5v-65a1.667,1.667,0,0,0-3.333,0v65A8.343,8.343,0,0,0,8.338,100H91.671A8.343,8.343,0,0,0,100,91.667v-65A1.666,1.666,0,0,0,98.337,25Z" transform="translate(-0.004 0)"/>
        <path id="Path_4" data-name="Path 4" class="cls-1" d="M612.168,315.087a1.669,1.669,0,0,0,2.243.728c.1-.05,9.908-5.033,14.747-6.562a1.668,1.668,0,0,0-1.007-3.18c-5.1,1.612-14.84,6.562-15.253,6.772A1.668,1.668,0,0,0,612.168,315.087Z" transform="translate(-555.321 -277.663)"/>
        <path id="Path_5" data-name="Path 5" class="cls-1" d="M612.168,531.085a1.669,1.669,0,0,0,2.243.728c.1-.05,9.908-5.033,14.747-6.562a1.668,1.668,0,0,0-1.007-3.18c-5.1,1.612-14.84,6.562-15.253,6.772A1.668,1.668,0,0,0,612.168,531.085Z" transform="translate(-555.321 -473.661)"/>
        <path id="Path_6" data-name="Path 6" class="cls-1" d="M203.712,325.013c-10.292-2.415-21.987.662-22.478.793a1.667,1.667,0,0,0,.43,3.277,1.7,1.7,0,0,0,.433-.057c.112-.032,11.372-2.993,20.855-.768a1.666,1.666,0,1,0,.76-3.245Z" transform="translate(-163.332 -294.082)"/>
        <path id="Path_7" data-name="Path 7" class="cls-1" d="M203.712,433.019c-10.292-2.413-21.987.662-22.478.793a1.667,1.667,0,0,0,.43,3.277,1.692,1.692,0,0,0,.433-.057c.112-.032,11.372-2.993,20.855-.768a1.666,1.666,0,1,0,.76-3.245Z" transform="translate(-163.332 -392.089)"/>
        <path id="Path_8" data-name="Path 8" class="cls-1" d="M612.168,639.084a1.669,1.669,0,0,0,2.243.728c.1-.05,9.908-5.033,14.747-6.562a1.668,1.668,0,0,0-1.007-3.18c-5.1,1.612-14.84,6.562-15.253,6.772A1.668,1.668,0,0,0,612.168,639.084Z" transform="translate(-555.321 -571.66)"/>
        <path id="Path_9" data-name="Path 9" class="cls-1" d="M203.712,541.015c-10.292-2.413-21.987.66-22.478.793a1.668,1.668,0,0,0,.43,3.278,1.687,1.687,0,0,0,.433-.058c.112-.032,11.372-2.993,20.855-.768a1.666,1.666,0,1,0,.76-3.245Z" transform="translate(-163.332 -490.085)"/>
        <path id="Path_10" data-name="Path 10" class="cls-1" d="M203.712,757.009c-10.292-2.415-21.987.662-22.478.793a1.668,1.668,0,0,0,.43,3.278,1.69,1.69,0,0,0,.433-.058c.112-.032,11.372-2.993,20.855-.768a1.666,1.666,0,1,0,.76-3.245Z" transform="translate(-163.332 -686.078)"/>
        <path id="Path_11" data-name="Path 11" class="cls-1" d="M203.712,649.007c-10.292-2.415-21.987.66-22.478.793a1.668,1.668,0,0,0,.43,3.278,1.69,1.69,0,0,0,.433-.058c.112-.032,11.372-2.993,20.855-.768a1.666,1.666,0,1,0,.76-3.245Z" transform="translate(-163.332 -588.076)"/>
      </g>
    </g>
  </g>
</svg>
